<svg xmlns="http://www.w3.org/2000/svg" viewBox="0 0 800 500" preserveAspectRatio="xMidYMid slice" role="img" aria-label="Architectural illustration"><defs>
<linearGradient id="sky" x1="0" y1="0" x2="0" y2="1">
  <stop offset="0" stop-color="#2b3050"/><stop offset="0.72" stop-color="#d4835e"/><stop offset="1" stop-color="#ffd2a0"/>
</linearGradient>
<radialGradient id="halo" cx="0.5" cy="0.5" r="0.5">
  <stop offset="0" stop-color="#ffd2a0" stop-opacity="0.85"/><stop offset="1" stop-color="#ffd2a0" stop-opacity="0"/>
</radialGradient>
<linearGradient id="gnd" x1="0" y1="0" x2="0" y2="1">
  <stop offset="0" stop-color="#1a3526"/><stop offset="1" stop-color="#122619"/>
</linearGradient>
<linearGradient id="sheen" x1="0" y1="0" x2="1" y2="0">
  <stop offset="0" stop-color="#ffffff" stop-opacity="0.10"/><stop offset="0.5" stop-color="#ffffff" stop-opacity="0"/>
</linearGradient>
</defs><rect width="800" height="500" fill="url(#sky)"/><circle cx="610" cy="140" r="156" fill="url(#halo)"/><circle cx="610" cy="140" r="46" fill="#ffd2a0" opacity="0.95"/><rect x="0" y="307" width="109" height="133" fill="#383d4c" opacity="0.5"/><rect x="117" y="350" width="54" height="90" fill="#383d4c" opacity="0.5"/><rect x="191" y="341" width="79" height="99" fill="#383d4c" opacity="0.5"/><rect x="290" y="335" width="92" height="105" fill="#383d4c" opacity="0.5"/><rect x="390" y="357" width="82" height="83" fill="#383d4c" opacity="0.5"/><rect x="480" y="347" width="50" height="93" fill="#383d4c" opacity="0.5"/><rect x="546" y="365" width="60" height="75" fill="#383d4c" opacity="0.5"/><rect x="612" y="320" width="80" height="120" fill="#383d4c" opacity="0.5"/><rect x="706" y="337" width="51" height="103" fill="#383d4c" opacity="0.5"/><rect x="772" y="360" width="91" height="80" fill="#383d4c" opacity="0.5"/><rect x="120" y="260" width="130" height="180" rx="4" fill="#264834"/><rect x="120" y="260" width="130" height="180" rx="4" fill="url(#sheen)"/><rect x="128" y="252" width="114" height="8" rx="2" fill="#264834" opacity="0.85"/><rect x="146" y="278" width="12" height="15" rx="1.5" fill="#ffd9ab" opacity="0.77"/><rect x="168" y="278" width="12" height="15" rx="1.5" fill="#0f2419" opacity="0.55"/><rect x="190" y="278" width="12" height="15" rx="1.5" fill="#ffd9ab" opacity="0.68"/><rect x="212" y="278" width="12" height="15" rx="1.5" fill="#0f2419" opacity="0.55"/><rect x="146" y="305" width="12" height="15" rx="1.5" fill="#ffd9ab" opacity="0.69"/><rect x="168" y="305" width="12" height="15" rx="1.5" fill="#ffd9ab" opacity="0.68"/><rect x="190" y="305" width="12" height="15" rx="1.5" fill="#ffd9ab" opacity="0.8"/><rect x="212" y="305" width="12" height="15" rx="1.5" fill="#0f2419" opacity="0.55"/><rect x="146" y="332" width="12" height="15" rx="1.5" fill="#0f2419" opacity="0.55"/><rect x="168" y="332" width="12" height="15" rx="1.5" fill="#0f2419" opacity="0.55"/><rect x="190" y="332" width="12" height="15" rx="1.5" fill="#ffd9ab" opacity="0.72"/><rect x="212" y="332" width="12" height="15" rx="1.5" fill="#ffd9ab" opacity="0.84"/><rect x="146" y="359" width="12" height="15" rx="1.5" fill="#ffd9ab" opacity="0.67"/><rect x="168" y="359" width="12" height="15" rx="1.5" fill="#0f2419" opacity="0.55"/><rect x="190" y="359" width="12" height="15" rx="1.5" fill="#ffd9ab" opacity="0.94"/><rect x="212" y="359" width="12" height="15" rx="1.5" fill="#0f2419" opacity="0.55"/><rect x="146" y="386" width="12" height="15" rx="1.5" fill="#0f2419" opacity="0.55"/><rect x="168" y="386" width="12" height="15" rx="1.5" fill="#0f2419" opacity="0.55"/><rect x="190" y="386" width="12" height="15" rx="1.5" fill="#ffd9ab" opacity="0.84"/><rect x="212" y="386" width="12" height="15" rx="1.5" fill="#ffd9ab" opacity="0.71"/><rect x="168" y="406" width="34" height="34" rx="3" fill="#ffd9ab" opacity="0.9"/><rect x="300" y="90" width="200" height="350" rx="4" fill="#183325"/><rect x="300" y="90" width="200" height="350" rx="4" fill="url(#sheen)"/><rect x="308" y="82" width="184" height="8" rx="2" fill="#183325" opacity="0.85"/><rect x="317" y="108" width="12" height="15" rx="1.5" fill="#ffd9ab" opacity="0.57"/><rect x="339" y="108" width="12" height="15" rx="1.5" fill="#ffd9ab" opacity="0.56"/><rect x="361" y="108" width="12" height="15" rx="1.5" fill="#ffd9ab" opacity="0.89"/><rect x="383" y="108" width="12" height="15" rx="1.5" fill="#0f2419" opacity="0.55"/><rect x="405" y="108" width="12" height="15" rx="1.5" fill="#ffd9ab" opacity="0.59"/><rect x="427" y="108" width="12" height="15" rx="1.5" fill="#ffd9ab" opacity="0.58"/><rect x="449" y="108" width="12" height="15" rx="1.5" fill="#ffd9ab" opacity="0.8"/><rect x="471" y="108" width="12" height="15" rx="1.5" fill="#0f2419" opacity="0.55"/><rect x="317" y="135" width="12" height="15" rx="1.5" fill="#ffd9ab" opacity="0.75"/><rect x="339" y="135" width="12" height="15" rx="1.5" fill="#ffd9ab" opacity="0.71"/><rect x="361" y="135" width="12" height="15" rx="1.5" fill="#ffd9ab" opacity="0.71"/><rect x="383" y="135" width="12" height="15" rx="1.5" fill="#ffd9ab" opacity="0.82"/><rect x="405" y="135" width="12" height="15" rx="1.5" fill="#0f2419" opacity="0.55"/><rect x="427" y="135" width="12" height="15" rx="1.5" fill="#0f2419" opacity="0.55"/><rect x="449" y="135" width="12" height="15" rx="1.5" fill="#ffd9ab" opacity="0.93"/><rect x="471" y="135" width="12" height="15" rx="1.5" fill="#ffd9ab" opacity="0.63"/><rect x="317" y="162" width="12" height="15" rx="1.5" fill="#ffd9ab" opacity="0.92"/><rect x="339" y="162" width="12" height="15" rx="1.5" fill="#ffd9ab" opacity="0.86"/><rect x="361" y="162" width="12" height="15" rx="1.5" fill="#0f2419" opacity="0.55"/><rect x="383" y="162" width="12" height="15" rx="1.5" fill="#0f2419" opacity="0.55"/><rect x="405" y="162" width="12" height="15" rx="1.5" fill="#ffd9ab" opacity="0.73"/><rect x="427" y="162" width="12" height="15" rx="1.5" fill="#0f2419" opacity="0.55"/><rect x="449" y="162" width="12" height="15" rx="1.5" fill="#0f2419" opacity="0.55"/><rect x="471" y="162" width="12" height="15" rx="1.5" fill="#0f2419" opacity="0.55"/><rect x="317" y="189" width="12" height="15" rx="1.5" fill="#ffd9ab" opacity="0.79"/><rect x="339" y="189" width="12" height="15" rx="1.5" fill="#0f2419" opacity="0.55"/><rect x="361" y="189" width="12" height="15" rx="1.5" fill="#ffd9ab" opacity="0.63"/><rect x="383" y="189" width="12" height="15" rx="1.5" fill="#0f2419" opacity="0.55"/><rect x="405" y="189" width="12" height="15" rx="1.5" fill="#ffd9ab" opacity="0.71"/><rect x="427" y="189" width="12" height="15" rx="1.5" fill="#ffd9ab" opacity="0.65"/><rect x="449" y="189" width="12" height="15" rx="1.5" fill="#ffd9ab" opacity="0.59"/><rect x="471" y="189" width="12" height="15" rx="1.5" fill="#ffd9ab" opacity="0.61"/><rect x="317" y="216" width="12" height="15" rx="1.5" fill="#0f2419" opacity="0.55"/><rect x="339" y="216" width="12" height="15" rx="1.5" fill="#0f2419" opacity="0.55"/><rect x="361" y="216" width="12" height="15" rx="1.5" fill="#0f2419" opacity="0.55"/><rect x="383" y="216" width="12" height="15" rx="1.5" fill="#ffd9ab" opacity="0.79"/><rect x="405" y="216" width="12" height="15" rx="1.5" fill="#ffd9ab" opacity="0.7"/><rect x="427" y="216" width="12" height="15" rx="1.5" fill="#ffd9ab" opacity="0.75"/><rect x="449" y="216" width="12" height="15" rx="1.5" fill="#ffd9ab" opacity="0.66"/><rect x="471" y="216" width="12" height="15" rx="1.5" fill="#ffd9ab" opacity="0.74"/><rect x="317" y="243" width="12" height="15" rx="1.5" fill="#0f2419" opacity="0.55"/><rect x="339" y="243" width="12" height="15" rx="1.5" fill="#ffd9ab" opacity="0.86"/><rect x="361" y="243" width="12" height="15" rx="1.5" fill="#0f2419" opacity="0.55"/><rect x="383" y="243" width="12" height="15" rx="1.5" fill="#ffd9ab" opacity="0.58"/><rect x="405" y="243" width="12" height="15" rx="1.5" fill="#ffd9ab" opacity="0.6"/><rect x="427" y="243" width="12" height="15" rx="1.5" fill="#ffd9ab" opacity="0.69"/><rect x="449" y="243" width="12" height="15" rx="1.5" fill="#0f2419" opacity="0.55"/><rect x="471" y="243" width="12" height="15" rx="1.5" fill="#ffd9ab" opacity="0.6"/><rect x="317" y="270" width="12" height="15" rx="1.5" fill="#0f2419" opacity="0.55"/><rect x="339" y="270" width="12" height="15" rx="1.5" fill="#0f2419" opacity="0.55"/><rect x="361" y="270" width="12" height="15" rx="1.5" fill="#ffd9ab" opacity="0.69"/><rect x="383" y="270" width="12" height="15" rx="1.5" fill="#ffd9ab" opacity="0.88"/><rect x="405" y="270" width="12" height="15" rx="1.5" fill="#0f2419" opacity="0.55"/><rect x="427" y="270" width="12" height="15" rx="1.5" fill="#0f2419" opacity="0.55"/><rect x="449" y="270" width="12" height="15" rx="1.5" fill="#ffd9ab" opacity="0.93"/><rect x="471" y="270" width="12" height="15" rx="1.5" fill="#ffd9ab" opacity="0.67"/><rect x="317" y="297" width="12" height="15" rx="1.5" fill="#ffd9ab" opacity="0.88"/><rect x="339" y="297" width="12" height="15" rx="1.5" fill="#0f2419" opacity="0.55"/><rect x="361" y="297" width="12" height="15" rx="1.5" fill="#0f2419" opacity="0.55"/><rect x="383" y="297" width="12" height="15" rx="1.5" fill="#0f2419" opacity="0.55"/><rect x="405" y="297" width="12" height="15" rx="1.5" fill="#0f2419" opacity="0.55"/><rect x="427" y="297" width="12" height="15" rx="1.5" fill="#ffd9ab" opacity="0.83"/><rect x="449" y="297" width="12" height="15" rx="1.5" fill="#0f2419" opacity="0.55"/><rect x="471" y="297" width="12" height="15" rx="1.5" fill="#ffd9ab" opacity="0.93"/><rect x="317" y="324" width="12" height="15" rx="1.5" fill="#ffd9ab" opacity="0.6"/><rect x="339" y="324" width="12" height="15" rx="1.5" fill="#ffd9ab" opacity="0.86"/><rect x="361" y="324" width="12" height="15" rx="1.5" fill="#ffd9ab" opacity="0.66"/><rect x="383" y="324" width="12" height="15" rx="1.5" fill="#0f2419" opacity="0.55"/><rect x="405" y="324" width="12" height="15" rx="1.5" fill="#ffd9ab" opacity="0.82"/><rect x="427" y="324" width="12" height="15" rx="1.5" fill="#ffd9ab" opacity="0.8"/><rect x="449" y="324" width="12" height="15" rx="1.5" fill="#ffd9ab" opacity="0.66"/><rect x="471" y="324" width="12" height="15" rx="1.5" fill="#ffd9ab" opacity="0.88"/><rect x="317" y="351" width="12" height="15" rx="1.5" fill="#ffd9ab" opacity="0.66"/><rect x="339" y="351" width="12" height="15" rx="1.5" fill="#0f2419" opacity="0.55"/><rect x="361" y="351" width="12" height="15" rx="1.5" fill="#0f2419" opacity="0.55"/><rect x="383" y="351" width="12" height="15" rx="1.5" fill="#ffd9ab" opacity="0.73"/><rect x="405" y="351" width="12" height="15" rx="1.5" fill="#ffd9ab" opacity="0.86"/><rect x="427" y="351" width="12" height="15" rx="1.5" fill="#ffd9ab" opacity="0.88"/><rect x="449" y="351" width="12" height="15" rx="1.5" fill="#ffd9ab" opacity="0.76"/><rect x="471" y="351" width="12" height="15" rx="1.5" fill="#ffd9ab" opacity="0.66"/><rect x="317" y="378" width="12" height="15" rx="1.5" fill="#ffd9ab" opacity="0.62"/><rect x="339" y="378" width="12" height="15" rx="1.5" fill="#ffd9ab" opacity="0.79"/><rect x="361" y="378" width="12" height="15" rx="1.5" fill="#0f2419" opacity="0.55"/><rect x="383" y="378" width="12" height="15" rx="1.5" fill="#ffd9ab" opacity="0.8"/><rect x="405" y="378" width="12" height="15" rx="1.5" fill="#0f2419" opacity="0.55"/><rect x="427" y="378" width="12" height="15" rx="1.5" fill="#0f2419" opacity="0.55"/><rect x="449" y="378" width="12" height="15" rx="1.5" fill="#ffd9ab" opacity="0.75"/><rect x="471" y="378" width="12" height="15" rx="1.5" fill="#ffd9ab" opacity="0.88"/><rect x="317" y="405" width="12" height="15" rx="1.5" fill="#0f2419" opacity="0.55"/><rect x="339" y="405" width="12" height="15" rx="1.5" fill="#ffd9ab" opacity="0.79"/><rect x="361" y="405" width="12" height="15" rx="1.5" fill="#ffd9ab" opacity="0.63"/><rect x="383" y="405" width="12" height="15" rx="1.5" fill="#0f2419" opacity="0.55"/><rect x="405" y="405" width="12" height="15" rx="1.5" fill="#ffd9ab" opacity="0.56"/><rect x="427" y="405" width="12" height="15" rx="1.5" fill="#ffd9ab" opacity="0.61"/><rect x="449" y="405" width="12" height="15" rx="1.5" fill="#ffd9ab" opacity="0.8"/><rect x="471" y="405" width="12" height="15" rx="1.5" fill="#ffd9ab" opacity="0.94"/><rect x="383" y="406" width="34" height="34" rx="3" fill="#ffd9ab" opacity="0.9"/><rect x="550" y="290" width="150" height="150" rx="4" fill="#22422f"/><rect x="550" y="290" width="150" height="150" rx="4" fill="url(#sheen)"/><rect x="558" y="282" width="134" height="8" rx="2" fill="#22422f" opacity="0.85"/><rect x="575" y="308" width="12" height="15" rx="1.5" fill="#ffd9ab" opacity="0.93"/><rect x="597" y="308" width="12" height="15" rx="1.5" fill="#0f2419" opacity="0.55"/><rect x="619" y="308" width="12" height="15" rx="1.5" fill="#ffd9ab" opacity="0.87"/><rect x="641" y="308" width="12" height="15" rx="1.5" fill="#ffd9ab" opacity="0.92"/><rect x="663" y="308" width="12" height="15" rx="1.5" fill="#ffd9ab" opacity="0.69"/><rect x="575" y="335" width="12" height="15" rx="1.5" fill="#0f2419" opacity="0.55"/><rect x="597" y="335" width="12" height="15" rx="1.5" fill="#ffd9ab" opacity="0.59"/><rect x="619" y="335" width="12" height="15" rx="1.5" fill="#ffd9ab" opacity="0.87"/><rect x="641" y="335" width="12" height="15" rx="1.5" fill="#ffd9ab" opacity="0.8"/><rect x="663" y="335" width="12" height="15" rx="1.5" fill="#ffd9ab" opacity="0.88"/><rect x="575" y="362" width="12" height="15" rx="1.5" fill="#0f2419" opacity="0.55"/><rect x="597" y="362" width="12" height="15" rx="1.5" fill="#ffd9ab" opacity="0.87"/><rect x="619" y="362" width="12" height="15" rx="1.5" fill="#0f2419" opacity="0.55"/><rect x="641" y="362" width="12" height="15" rx="1.5" fill="#ffd9ab" opacity="0.74"/><rect x="663" y="362" width="12" height="15" rx="1.5" fill="#0f2419" opacity="0.55"/><rect x="575" y="389" width="12" height="15" rx="1.5" fill="#0f2419" opacity="0.55"/><rect x="597" y="389" width="12" height="15" rx="1.5" fill="#ffd9ab" opacity="0.77"/><rect x="619" y="389" width="12" height="15" rx="1.5" fill="#ffd9ab" opacity="0.88"/><rect x="641" y="389" width="12" height="15" rx="1.5" fill="#0f2419" opacity="0.55"/><rect x="663" y="389" width="12" height="15" rx="1.5" fill="#ffd9ab" opacity="0.64"/><rect x="608" y="406" width="34" height="34" rx="3" fill="#ffd9ab" opacity="0.9"/><rect x="0" y="440" width="800" height="60" fill="url(#gnd)"/><ellipse cx="400.0" cy="444" rx="560" ry="7" fill="#0d1f14" opacity="0.5"/><path d="M336 500 L376 440 L424 440 L496 500 Z" fill="#c9b18f" opacity="0.28"/><path d="M46 466 L46 400.9" stroke="#3d2b20" stroke-width="5.8" stroke-linecap="round"/><circle cx="30" cy="389" r="23" fill="#2f5c40"/><circle cx="63" cy="382" r="26" fill="#3d7050"/><circle cx="46" cy="366" r="22" fill="#2f5c40"/><path d="M759 466 L759 395.8" stroke="#3d2b20" stroke-width="6.5" stroke-linecap="round"/><circle cx="741" cy="383" r="26" fill="#2f5c40"/><circle cx="778" cy="375" r="30" fill="#3d7050"/><circle cx="759" cy="357" r="25" fill="#2f5c40"/><path d="M381 466 L381 411.1" stroke="#3d2b20" stroke-width="4.2" stroke-linecap="round"/><circle cx="369" cy="403" r="17" fill="#2f5c40"/><circle cx="394" cy="398" r="20" fill="#3d7050"/><circle cx="381" cy="386" r="16" fill="#2f5c40"/><path d="M206 458 V394" stroke="#122619" stroke-width="3"/><circle cx="206" cy="388" r="6" fill="#ffd9ab" opacity="0.95"/><circle cx="206" cy="388" r="14" fill="#ffd9ab" opacity="0.18"/><path d="M576 458 V394" stroke="#122619" stroke-width="3"/><circle cx="576" cy="388" r="6" fill="#ffd9ab" opacity="0.95"/><circle cx="576" cy="388" r="14" fill="#ffd9ab" opacity="0.18"/><rect width="800" height="500" fill="#1a2f22" opacity="0.06"/></svg>