<svg xmlns="http://www.w3.org/2000/svg" viewBox="0 0 1000 625" preserveAspectRatio="xMidYMid slice" role="img" aria-label="Architectural elevation drawing"><defs>
<linearGradient id="bg" x1="0" y1="0" x2="0" y2="1">
  <stop offset="0" stop-color="#1a3b2e"/><stop offset="1" stop-color="#122a20"/>
</linearGradient>
</defs><rect width="1000" height="625" fill="url(#bg)"/><g stroke="#e9dfc8" stroke-width="0.4" opacity="0.06"><line x1="0" y1="0" x2="0" y2="625"/><line x1="50" y1="0" x2="50" y2="625"/><line x1="100" y1="0" x2="100" y2="625"/><line x1="150" y1="0" x2="150" y2="625"/><line x1="200" y1="0" x2="200" y2="625"/><line x1="250" y1="0" x2="250" y2="625"/><line x1="300" y1="0" x2="300" y2="625"/><line x1="350" y1="0" x2="350" y2="625"/><line x1="400" y1="0" x2="400" y2="625"/><line x1="450" y1="0" x2="450" y2="625"/><line x1="500" y1="0" x2="500" y2="625"/><line x1="550" y1="0" x2="550" y2="625"/><line x1="600" y1="0" x2="600" y2="625"/><line x1="650" y1="0" x2="650" y2="625"/><line x1="700" y1="0" x2="700" y2="625"/><line x1="750" y1="0" x2="750" y2="625"/><line x1="800" y1="0" x2="800" y2="625"/><line x1="850" y1="0" x2="850" y2="625"/><line x1="900" y1="0" x2="900" y2="625"/><line x1="950" y1="0" x2="950" y2="625"/><line x1="1000" y1="0" x2="1000" y2="625"/><line x1="0" y1="0" x2="1000" y2="0"/><line x1="0" y1="50" x2="1000" y2="50"/><line x1="0" y1="100" x2="1000" y2="100"/><line x1="0" y1="150" x2="1000" y2="150"/><line x1="0" y1="200" x2="1000" y2="200"/><line x1="0" y1="250" x2="1000" y2="250"/><line x1="0" y1="300" x2="1000" y2="300"/><line x1="0" y1="350" x2="1000" y2="350"/><line x1="0" y1="400" x2="1000" y2="400"/><line x1="0" y1="450" x2="1000" y2="450"/><line x1="0" y1="500" x2="1000" y2="500"/><line x1="0" y1="550" x2="1000" y2="550"/><line x1="0" y1="600" x2="1000" y2="600"/></g><circle cx="252" cy="210" r="150" fill="none" stroke="#e9dfc8" stroke-width="0.7" opacity="0.14"/><rect x="70" y="230" width="180" height="290" fill="none" stroke="#e9dfc8" stroke-width="1.6"/><line x1="70" y1="244" x2="250" y2="244" stroke="#e9dfc8" stroke-width="0.8" opacity="0.85"/><line x1="70" y1="299.2" x2="250" y2="299.2" stroke="#e9dfc8" stroke-width="0.7" opacity="0.55"/><line x1="70" y1="354.4" x2="250" y2="354.4" stroke="#e9dfc8" stroke-width="0.7" opacity="0.55"/><line x1="70" y1="409.6" x2="250" y2="409.6" stroke="#e9dfc8" stroke-width="0.7" opacity="0.55"/><line x1="70" y1="464.8" x2="250" y2="464.8" stroke="#e9dfc8" stroke-width="0.7" opacity="0.55"/><rect x="83.2" y="256.1" width="33.6" height="30.9" fill="none" stroke="#e9dfc8" stroke-width="0.7" opacity="0.7"/><rect x="83.2" y="256.1" width="33.6" height="30.9" fill="#e9dfc8" opacity="0.18" stroke="none"/><rect x="143.2" y="256.1" width="33.6" height="30.9" fill="none" stroke="#e9dfc8" stroke-width="0.7" opacity="0.7"/><rect x="203.2" y="256.1" width="33.6" height="30.9" fill="none" stroke="#e9dfc8" stroke-width="0.7" opacity="0.7"/><rect x="83.2" y="311.3" width="33.6" height="30.9" fill="none" stroke="#e9dfc8" stroke-width="0.7" opacity="0.7"/><rect x="83.2" y="311.3" width="33.6" height="30.9" fill="#e9dfc8" opacity="0.18" stroke="none"/><rect x="143.2" y="311.3" width="33.6" height="30.9" fill="none" stroke="#e9dfc8" stroke-width="0.7" opacity="0.7"/><rect x="143.2" y="311.3" width="33.6" height="30.9" fill="#e9dfc8" opacity="0.18" stroke="none"/><rect x="203.2" y="311.3" width="33.6" height="30.9" fill="none" stroke="#e9dfc8" stroke-width="0.7" opacity="0.7"/><rect x="83.2" y="366.5" width="33.6" height="30.9" fill="none" stroke="#e9dfc8" stroke-width="0.7" opacity="0.7"/><rect x="143.2" y="366.5" width="33.6" height="30.9" fill="none" stroke="#e9dfc8" stroke-width="0.7" opacity="0.7"/><rect x="143.2" y="366.5" width="33.6" height="30.9" fill="#e9dfc8" opacity="0.18" stroke="none"/><rect x="203.2" y="366.5" width="33.6" height="30.9" fill="none" stroke="#e9dfc8" stroke-width="0.7" opacity="0.7"/><rect x="83.2" y="421.7" width="33.6" height="30.9" fill="none" stroke="#e9dfc8" stroke-width="0.7" opacity="0.7"/><rect x="143.2" y="421.7" width="33.6" height="30.9" fill="none" stroke="#e9dfc8" stroke-width="0.7" opacity="0.7"/><rect x="143.2" y="421.7" width="33.6" height="30.9" fill="#e9dfc8" opacity="0.18" stroke="none"/><rect x="203.2" y="421.7" width="33.6" height="30.9" fill="none" stroke="#e9dfc8" stroke-width="0.7" opacity="0.7"/><rect x="83.2" y="476.9" width="33.6" height="30.9" fill="none" stroke="#e9dfc8" stroke-width="0.7" opacity="0.7"/><rect x="143.2" y="476.9" width="33.6" height="30.9" fill="none" stroke="#e9dfc8" stroke-width="0.7" opacity="0.7"/><rect x="203.2" y="476.9" width="33.6" height="30.9" fill="none" stroke="#e9dfc8" stroke-width="0.7" opacity="0.7"/><rect x="138" y="480" width="44" height="40" fill="none" stroke="#e9dfc8" stroke-width="1.2"/><line x1="160" y1="480" x2="160" y2="520" stroke="#e9dfc8" stroke-width="0.7" opacity="0.7"/><line x1="70" y1="208" x2="250" y2="208" stroke="#e9dfc8" stroke-width="0.6" opacity="0.5"/><line x1="70" y1="203" x2="70" y2="213" stroke="#e9dfc8" stroke-width="0.6" opacity="0.5"/><line x1="250" y1="203" x2="250" y2="213" stroke="#e9dfc8" stroke-width="0.6" opacity="0.5"/><rect x="290" y="120" width="260" height="400" fill="none" stroke="#c8794f" stroke-width="1.6"/><line x1="290" y1="134" x2="550" y2="134" stroke="#c8794f" stroke-width="0.8" opacity="0.85"/><line x1="290" y1="189.1" x2="550" y2="189.1" stroke="#c8794f" stroke-width="0.7" opacity="0.55"/><line x1="290" y1="244.3" x2="550" y2="244.3" stroke="#c8794f" stroke-width="0.7" opacity="0.55"/><line x1="290" y1="299.4" x2="550" y2="299.4" stroke="#c8794f" stroke-width="0.7" opacity="0.55"/><line x1="290" y1="354.6" x2="550" y2="354.6" stroke="#c8794f" stroke-width="0.7" opacity="0.55"/><line x1="290" y1="409.7" x2="550" y2="409.7" stroke="#c8794f" stroke-width="0.7" opacity="0.55"/><line x1="290" y1="464.9" x2="550" y2="464.9" stroke="#c8794f" stroke-width="0.7" opacity="0.55"/><rect x="301.4" y="146.1" width="29.1" height="30.9" fill="none" stroke="#c8794f" stroke-width="0.7" opacity="0.7"/><rect x="301.4" y="146.1" width="29.1" height="30.9" fill="#c8794f" opacity="0.18" stroke="none"/><rect x="353.4" y="146.1" width="29.1" height="30.9" fill="none" stroke="#c8794f" stroke-width="0.7" opacity="0.7"/><rect x="353.4" y="146.1" width="29.1" height="30.9" fill="#c8794f" opacity="0.18" stroke="none"/><rect x="405.4" y="146.1" width="29.1" height="30.9" fill="none" stroke="#c8794f" stroke-width="0.7" opacity="0.7"/><rect x="457.4" y="146.1" width="29.1" height="30.9" fill="none" stroke="#c8794f" stroke-width="0.7" opacity="0.7"/><rect x="509.4" y="146.1" width="29.1" height="30.9" fill="none" stroke="#c8794f" stroke-width="0.7" opacity="0.7"/><rect x="301.4" y="201.3" width="29.1" height="30.9" fill="none" stroke="#c8794f" stroke-width="0.7" opacity="0.7"/><rect x="353.4" y="201.3" width="29.1" height="30.9" fill="none" stroke="#c8794f" stroke-width="0.7" opacity="0.7"/><rect x="405.4" y="201.3" width="29.1" height="30.9" fill="none" stroke="#c8794f" stroke-width="0.7" opacity="0.7"/><rect x="457.4" y="201.3" width="29.1" height="30.9" fill="none" stroke="#c8794f" stroke-width="0.7" opacity="0.7"/><rect x="509.4" y="201.3" width="29.1" height="30.9" fill="none" stroke="#c8794f" stroke-width="0.7" opacity="0.7"/><rect x="301.4" y="256.4" width="29.1" height="30.9" fill="none" stroke="#c8794f" stroke-width="0.7" opacity="0.7"/><rect x="353.4" y="256.4" width="29.1" height="30.9" fill="none" stroke="#c8794f" stroke-width="0.7" opacity="0.7"/><rect x="405.4" y="256.4" width="29.1" height="30.9" fill="none" stroke="#c8794f" stroke-width="0.7" opacity="0.7"/><rect x="457.4" y="256.4" width="29.1" height="30.9" fill="none" stroke="#c8794f" stroke-width="0.7" opacity="0.7"/><rect x="509.4" y="256.4" width="29.1" height="30.9" fill="none" stroke="#c8794f" stroke-width="0.7" opacity="0.7"/><rect x="301.4" y="311.6" width="29.1" height="30.9" fill="none" stroke="#c8794f" stroke-width="0.7" opacity="0.7"/><rect x="353.4" y="311.6" width="29.1" height="30.9" fill="none" stroke="#c8794f" stroke-width="0.7" opacity="0.7"/><rect x="405.4" y="311.6" width="29.1" height="30.9" fill="none" stroke="#c8794f" stroke-width="0.7" opacity="0.7"/><rect x="457.4" y="311.6" width="29.1" height="30.9" fill="none" stroke="#c8794f" stroke-width="0.7" opacity="0.7"/><rect x="457.4" y="311.6" width="29.1" height="30.9" fill="#c8794f" opacity="0.18" stroke="none"/><rect x="509.4" y="311.6" width="29.1" height="30.9" fill="none" stroke="#c8794f" stroke-width="0.7" opacity="0.7"/><rect x="301.4" y="366.7" width="29.1" height="30.9" fill="none" stroke="#c8794f" stroke-width="0.7" opacity="0.7"/><rect x="353.4" y="366.7" width="29.1" height="30.9" fill="none" stroke="#c8794f" stroke-width="0.7" opacity="0.7"/><rect x="405.4" y="366.7" width="29.1" height="30.9" fill="none" stroke="#c8794f" stroke-width="0.7" opacity="0.7"/><rect x="457.4" y="366.7" width="29.1" height="30.9" fill="none" stroke="#c8794f" stroke-width="0.7" opacity="0.7"/><rect x="509.4" y="366.7" width="29.1" height="30.9" fill="none" stroke="#c8794f" stroke-width="0.7" opacity="0.7"/><rect x="301.4" y="421.8" width="29.1" height="30.9" fill="none" stroke="#c8794f" stroke-width="0.7" opacity="0.7"/><rect x="353.4" y="421.8" width="29.1" height="30.9" fill="none" stroke="#c8794f" stroke-width="0.7" opacity="0.7"/><rect x="405.4" y="421.8" width="29.1" height="30.9" fill="none" stroke="#c8794f" stroke-width="0.7" opacity="0.7"/><rect x="457.4" y="421.8" width="29.1" height="30.9" fill="none" stroke="#c8794f" stroke-width="0.7" opacity="0.7"/><rect x="457.4" y="421.8" width="29.1" height="30.9" fill="#c8794f" opacity="0.18" stroke="none"/><rect x="509.4" y="421.8" width="29.1" height="30.9" fill="none" stroke="#c8794f" stroke-width="0.7" opacity="0.7"/><rect x="301.4" y="477.0" width="29.1" height="30.9" fill="none" stroke="#c8794f" stroke-width="0.7" opacity="0.7"/><rect x="353.4" y="477.0" width="29.1" height="30.9" fill="none" stroke="#c8794f" stroke-width="0.7" opacity="0.7"/><rect x="405.4" y="477.0" width="29.1" height="30.9" fill="none" stroke="#c8794f" stroke-width="0.7" opacity="0.7"/><rect x="457.4" y="477.0" width="29.1" height="30.9" fill="none" stroke="#c8794f" stroke-width="0.7" opacity="0.7"/><rect x="509.4" y="477.0" width="29.1" height="30.9" fill="none" stroke="#c8794f" stroke-width="0.7" opacity="0.7"/><rect x="398" y="480" width="44" height="40" fill="none" stroke="#c8794f" stroke-width="1.2"/><line x1="420" y1="480" x2="420" y2="520" stroke="#c8794f" stroke-width="0.7" opacity="0.7"/><line x1="290" y1="98" x2="550" y2="98" stroke="#c8794f" stroke-width="0.6" opacity="0.5"/><line x1="290" y1="93" x2="290" y2="103" stroke="#c8794f" stroke-width="0.6" opacity="0.5"/><line x1="550" y1="93" x2="550" y2="103" stroke="#c8794f" stroke-width="0.6" opacity="0.5"/><rect x="600" y="270" width="180" height="250" fill="none" stroke="#e9dfc8" stroke-width="1.6"/><line x1="600" y1="284" x2="780" y2="284" stroke="#e9dfc8" stroke-width="0.8" opacity="0.85"/><line x1="600" y1="343.0" x2="780" y2="343.0" stroke="#e9dfc8" stroke-width="0.7" opacity="0.55"/><line x1="600" y1="402.0" x2="780" y2="402.0" stroke="#e9dfc8" stroke-width="0.7" opacity="0.55"/><line x1="600" y1="461.0" x2="780" y2="461.0" stroke="#e9dfc8" stroke-width="0.7" opacity="0.55"/><rect x="613.2" y="297.0" width="33.6" height="33.0" fill="none" stroke="#e9dfc8" stroke-width="0.7" opacity="0.7"/><rect x="673.2" y="297.0" width="33.6" height="33.0" fill="none" stroke="#e9dfc8" stroke-width="0.7" opacity="0.7"/><rect x="733.2" y="297.0" width="33.6" height="33.0" fill="none" stroke="#e9dfc8" stroke-width="0.7" opacity="0.7"/><rect x="613.2" y="356.0" width="33.6" height="33.0" fill="none" stroke="#e9dfc8" stroke-width="0.7" opacity="0.7"/><rect x="673.2" y="356.0" width="33.6" height="33.0" fill="none" stroke="#e9dfc8" stroke-width="0.7" opacity="0.7"/><rect x="733.2" y="356.0" width="33.6" height="33.0" fill="none" stroke="#e9dfc8" stroke-width="0.7" opacity="0.7"/><rect x="613.2" y="415.0" width="33.6" height="33.0" fill="none" stroke="#e9dfc8" stroke-width="0.7" opacity="0.7"/><rect x="673.2" y="415.0" width="33.6" height="33.0" fill="none" stroke="#e9dfc8" stroke-width="0.7" opacity="0.7"/><rect x="733.2" y="415.0" width="33.6" height="33.0" fill="none" stroke="#e9dfc8" stroke-width="0.7" opacity="0.7"/><rect x="733.2" y="415.0" width="33.6" height="33.0" fill="#e9dfc8" opacity="0.18" stroke="none"/><rect x="613.2" y="474.0" width="33.6" height="33.0" fill="none" stroke="#e9dfc8" stroke-width="0.7" opacity="0.7"/><rect x="673.2" y="474.0" width="33.6" height="33.0" fill="none" stroke="#e9dfc8" stroke-width="0.7" opacity="0.7"/><rect x="733.2" y="474.0" width="33.6" height="33.0" fill="none" stroke="#e9dfc8" stroke-width="0.7" opacity="0.7"/><rect x="668" y="480" width="44" height="40" fill="none" stroke="#e9dfc8" stroke-width="1.2"/><line x1="690" y1="480" x2="690" y2="520" stroke="#e9dfc8" stroke-width="0.7" opacity="0.7"/><line x1="600" y1="248" x2="780" y2="248" stroke="#e9dfc8" stroke-width="0.6" opacity="0.5"/><line x1="600" y1="243" x2="600" y2="253" stroke="#e9dfc8" stroke-width="0.6" opacity="0.5"/><line x1="780" y1="243" x2="780" y2="253" stroke="#e9dfc8" stroke-width="0.6" opacity="0.5"/><rect x="820" y="330" width="130" height="190" fill="none" stroke="#e9dfc8" stroke-width="1.6"/><line x1="820" y1="344" x2="950" y2="344" stroke="#e9dfc8" stroke-width="0.8" opacity="0.85"/><line x1="820" y1="402.7" x2="950" y2="402.7" stroke="#e9dfc8" stroke-width="0.7" opacity="0.55"/><line x1="820" y1="461.3" x2="950" y2="461.3" stroke="#e9dfc8" stroke-width="0.7" opacity="0.55"/><rect x="829.5" y="356.9" width="24.3" height="32.9" fill="none" stroke="#e9dfc8" stroke-width="0.7" opacity="0.7"/><rect x="872.9" y="356.9" width="24.3" height="32.9" fill="none" stroke="#e9dfc8" stroke-width="0.7" opacity="0.7"/><rect x="872.9" y="356.9" width="24.3" height="32.9" fill="#e9dfc8" opacity="0.18" stroke="none"/><rect x="916.2" y="356.9" width="24.3" height="32.9" fill="none" stroke="#e9dfc8" stroke-width="0.7" opacity="0.7"/><rect x="829.5" y="415.6" width="24.3" height="32.9" fill="none" stroke="#e9dfc8" stroke-width="0.7" opacity="0.7"/><rect x="872.9" y="415.6" width="24.3" height="32.9" fill="none" stroke="#e9dfc8" stroke-width="0.7" opacity="0.7"/><rect x="916.2" y="415.6" width="24.3" height="32.9" fill="none" stroke="#e9dfc8" stroke-width="0.7" opacity="0.7"/><rect x="829.5" y="474.2" width="24.3" height="32.9" fill="none" stroke="#e9dfc8" stroke-width="0.7" opacity="0.7"/><rect x="872.9" y="474.2" width="24.3" height="32.9" fill="none" stroke="#e9dfc8" stroke-width="0.7" opacity="0.7"/><rect x="916.2" y="474.2" width="24.3" height="32.9" fill="none" stroke="#e9dfc8" stroke-width="0.7" opacity="0.7"/><rect x="863" y="480" width="44" height="40" fill="none" stroke="#e9dfc8" stroke-width="1.2"/><line x1="885" y1="480" x2="885" y2="520" stroke="#e9dfc8" stroke-width="0.7" opacity="0.7"/><line x1="820" y1="308" x2="950" y2="308" stroke="#e9dfc8" stroke-width="0.6" opacity="0.5"/><line x1="820" y1="303" x2="820" y2="313" stroke="#e9dfc8" stroke-width="0.6" opacity="0.5"/><line x1="950" y1="303" x2="950" y2="313" stroke="#e9dfc8" stroke-width="0.6" opacity="0.5"/><line x1="40" y1="520" x2="960" y2="520" stroke="#e9dfc8" stroke-width="1.6"/><line x1="40" y1="530" x2="960" y2="530" stroke="#e9dfc8" stroke-width="0.6" opacity="0.4"/><line x1="68" y1="520" x2="68" y2="486" stroke="#e9dfc8" stroke-width="1" opacity="0.8"/><circle cx="68" cy="468" r="20" fill="none" stroke="#e9dfc8" stroke-width="1" opacity="0.8"/><line x1="935" y1="520" x2="935" y2="481" stroke="#e9dfc8" stroke-width="1" opacity="0.8"/><circle cx="935" cy="460" r="23" fill="none" stroke="#e9dfc8" stroke-width="1" opacity="0.8"/></svg>