<svg xmlns="http://www.w3.org/2000/svg" viewBox="0 0 800 500" preserveAspectRatio="xMidYMid slice" role="img" aria-label="Architectural illustration"><defs>
<linearGradient id="sky" x1="0" y1="0" x2="0" y2="1">
  <stop offset="0" stop-color="#2c3f54"/><stop offset="0.72" stop-color="#d98e5f"/><stop offset="1" stop-color="#ffcf9d"/>
</linearGradient>
<radialGradient id="halo" cx="0.5" cy="0.5" r="0.5">
  <stop offset="0" stop-color="#ffcf9d" stop-opacity="0.85"/><stop offset="1" stop-color="#ffcf9d" stop-opacity="0"/>
</radialGradient>
<linearGradient id="gnd" x1="0" y1="0" x2="0" y2="1">
  <stop offset="0" stop-color="#1a3526"/><stop offset="1" stop-color="#122619"/>
</linearGradient>
<linearGradient id="sheen" x1="0" y1="0" x2="1" y2="0">
  <stop offset="0" stop-color="#ffffff" stop-opacity="0.10"/><stop offset="0.5" stop-color="#ffffff" stop-opacity="0"/>
</linearGradient>
</defs><rect width="800" height="500" fill="url(#sky)"/><circle cx="170" cy="140" r="136" fill="url(#halo)"/><circle cx="170" cy="140" r="40" fill="#ffcf9d" opacity="0.95"/><rect x="0" y="346" width="80" height="94" fill="#33474e" opacity="0.5"/><rect x="96" y="295" width="83" height="145" fill="#33474e" opacity="0.5"/><rect x="190" y="332" width="59" height="108" fill="#33474e" opacity="0.5"/><rect x="255" y="319" width="73" height="121" fill="#33474e" opacity="0.5"/><rect x="338" y="322" width="91" height="118" fill="#33474e" opacity="0.5"/><rect x="446" y="304" width="105" height="136" fill="#33474e" opacity="0.5"/><rect x="560" y="380" width="85" height="60" fill="#33474e" opacity="0.5"/><rect x="661" y="362" width="89" height="78" fill="#33474e" opacity="0.5"/><rect x="763" y="360" width="73" height="80" fill="#33474e" opacity="0.5"/><rect x="90" y="240" width="300" height="200" rx="4" fill="#1c3a2a"/><rect x="90" y="240" width="300" height="200" rx="4" fill="url(#sheen)"/><rect x="98" y="232" width="284" height="8" rx="2" fill="#1c3a2a" opacity="0.85"/><rect x="113" y="258" width="12" height="15" rx="1.5" fill="#ffd3a1" opacity="0.77"/><rect x="135" y="258" width="12" height="15" rx="1.5" fill="#0f2419" opacity="0.55"/><rect x="157" y="258" width="12" height="15" rx="1.5" fill="#ffd3a1" opacity="0.75"/><rect x="179" y="258" width="12" height="15" rx="1.5" fill="#0f2419" opacity="0.55"/><rect x="201" y="258" width="12" height="15" rx="1.5" fill="#ffd3a1" opacity="0.75"/><rect x="223" y="258" width="12" height="15" rx="1.5" fill="#0f2419" opacity="0.55"/><rect x="245" y="258" width="12" height="15" rx="1.5" fill="#0f2419" opacity="0.55"/><rect x="267" y="258" width="12" height="15" rx="1.5" fill="#ffd3a1" opacity="0.67"/><rect x="289" y="258" width="12" height="15" rx="1.5" fill="#ffd3a1" opacity="0.87"/><rect x="311" y="258" width="12" height="15" rx="1.5" fill="#0f2419" opacity="0.55"/><rect x="333" y="258" width="12" height="15" rx="1.5" fill="#ffd3a1" opacity="0.94"/><rect x="355" y="258" width="12" height="15" rx="1.5" fill="#0f2419" opacity="0.55"/><rect x="113" y="285" width="12" height="15" rx="1.5" fill="#0f2419" opacity="0.55"/><rect x="135" y="285" width="12" height="15" rx="1.5" fill="#0f2419" opacity="0.55"/><rect x="157" y="285" width="12" height="15" rx="1.5" fill="#ffd3a1" opacity="0.56"/><rect x="179" y="285" width="12" height="15" rx="1.5" fill="#ffd3a1" opacity="0.57"/><rect x="201" y="285" width="12" height="15" rx="1.5" fill="#ffd3a1" opacity="0.65"/><rect x="223" y="285" width="12" height="15" rx="1.5" fill="#ffd3a1" opacity="0.74"/><rect x="245" y="285" width="12" height="15" rx="1.5" fill="#ffd3a1" opacity="0.89"/><rect x="267" y="285" width="12" height="15" rx="1.5" fill="#ffd3a1" opacity="0.81"/><rect x="289" y="285" width="12" height="15" rx="1.5" fill="#ffd3a1" opacity="0.81"/><rect x="311" y="285" width="12" height="15" rx="1.5" fill="#ffd3a1" opacity="0.66"/><rect x="333" y="285" width="12" height="15" rx="1.5" fill="#0f2419" opacity="0.55"/><rect x="355" y="285" width="12" height="15" rx="1.5" fill="#0f2419" opacity="0.55"/><rect x="113" y="312" width="12" height="15" rx="1.5" fill="#0f2419" opacity="0.55"/><rect x="135" y="312" width="12" height="15" rx="1.5" fill="#0f2419" opacity="0.55"/><rect x="157" y="312" width="12" height="15" rx="1.5" fill="#ffd3a1" opacity="0.64"/><rect x="179" y="312" width="12" height="15" rx="1.5" fill="#ffd3a1" opacity="0.58"/><rect x="201" y="312" width="12" height="15" rx="1.5" fill="#0f2419" opacity="0.55"/><rect x="223" y="312" width="12" height="15" rx="1.5" fill="#ffd3a1" opacity="0.89"/><rect x="245" y="312" width="12" height="15" rx="1.5" fill="#ffd3a1" opacity="0.93"/><rect x="267" y="312" width="12" height="15" rx="1.5" fill="#0f2419" opacity="0.55"/><rect x="289" y="312" width="12" height="15" rx="1.5" fill="#ffd3a1" opacity="0.63"/><rect x="311" y="312" width="12" height="15" rx="1.5" fill="#0f2419" opacity="0.55"/><rect x="333" y="312" width="12" height="15" rx="1.5" fill="#ffd3a1" opacity="0.94"/><rect x="355" y="312" width="12" height="15" rx="1.5" fill="#ffd3a1" opacity="0.58"/><rect x="113" y="339" width="12" height="15" rx="1.5" fill="#0f2419" opacity="0.55"/><rect x="135" y="339" width="12" height="15" rx="1.5" fill="#0f2419" opacity="0.55"/><rect x="157" y="339" width="12" height="15" rx="1.5" fill="#ffd3a1" opacity="0.58"/><rect x="179" y="339" width="12" height="15" rx="1.5" fill="#ffd3a1" opacity="0.94"/><rect x="201" y="339" width="12" height="15" rx="1.5" fill="#0f2419" opacity="0.55"/><rect x="223" y="339" width="12" height="15" rx="1.5" fill="#ffd3a1" opacity="0.65"/><rect x="245" y="339" width="12" height="15" rx="1.5" fill="#ffd3a1" opacity="0.57"/><rect x="267" y="339" width="12" height="15" rx="1.5" fill="#0f2419" opacity="0.55"/><rect x="289" y="339" width="12" height="15" rx="1.5" fill="#ffd3a1" opacity="0.77"/><rect x="311" y="339" width="12" height="15" rx="1.5" fill="#ffd3a1" opacity="0.63"/><rect x="333" y="339" width="12" height="15" rx="1.5" fill="#0f2419" opacity="0.55"/><rect x="355" y="339" width="12" height="15" rx="1.5" fill="#ffd3a1" opacity="0.81"/><rect x="113" y="366" width="12" height="15" rx="1.5" fill="#ffd3a1" opacity="0.72"/><rect x="135" y="366" width="12" height="15" rx="1.5" fill="#ffd3a1" opacity="0.66"/><rect x="157" y="366" width="12" height="15" rx="1.5" fill="#0f2419" opacity="0.55"/><rect x="179" y="366" width="12" height="15" rx="1.5" fill="#0f2419" opacity="0.55"/><rect x="201" y="366" width="12" height="15" rx="1.5" fill="#ffd3a1" opacity="0.9"/><rect x="223" y="366" width="12" height="15" rx="1.5" fill="#ffd3a1" opacity="0.71"/><rect x="245" y="366" width="12" height="15" rx="1.5" fill="#0f2419" opacity="0.55"/><rect x="267" y="366" width="12" height="15" rx="1.5" fill="#0f2419" opacity="0.55"/><rect x="289" y="366" width="12" height="15" rx="1.5" fill="#ffd3a1" opacity="0.95"/><rect x="311" y="366" width="12" height="15" rx="1.5" fill="#ffd3a1" opacity="0.65"/><rect x="333" y="366" width="12" height="15" rx="1.5" fill="#0f2419" opacity="0.55"/><rect x="355" y="366" width="12" height="15" rx="1.5" fill="#ffd3a1" opacity="0.67"/><rect x="113" y="393" width="12" height="15" rx="1.5" fill="#ffd3a1" opacity="0.59"/><rect x="135" y="393" width="12" height="15" rx="1.5" fill="#0f2419" opacity="0.55"/><rect x="157" y="393" width="12" height="15" rx="1.5" fill="#ffd3a1" opacity="0.79"/><rect x="179" y="393" width="12" height="15" rx="1.5" fill="#ffd3a1" opacity="0.73"/><rect x="201" y="393" width="12" height="15" rx="1.5" fill="#0f2419" opacity="0.55"/><rect x="223" y="393" width="12" height="15" rx="1.5" fill="#ffd3a1" opacity="0.78"/><rect x="245" y="393" width="12" height="15" rx="1.5" fill="#0f2419" opacity="0.55"/><rect x="267" y="393" width="12" height="15" rx="1.5" fill="#ffd3a1" opacity="0.61"/><rect x="289" y="393" width="12" height="15" rx="1.5" fill="#0f2419" opacity="0.55"/><rect x="311" y="393" width="12" height="15" rx="1.5" fill="#0f2419" opacity="0.55"/><rect x="333" y="393" width="12" height="15" rx="1.5" fill="#ffd3a1" opacity="0.63"/><rect x="355" y="393" width="12" height="15" rx="1.5" fill="#0f2419" opacity="0.55"/><rect x="223" y="406" width="34" height="34" rx="3" fill="#ffd3a1" opacity="0.9"/><rect x="420" y="200" width="140" height="240" rx="4" fill="#254634"/><rect x="420" y="200" width="140" height="240" rx="4" fill="url(#sheen)"/><rect x="428" y="192" width="124" height="8" rx="2" fill="#254634" opacity="0.85"/><rect x="440" y="218" width="12" height="15" rx="1.5" fill="#0f2419" opacity="0.55"/><rect x="462" y="218" width="12" height="15" rx="1.5" fill="#ffd3a1" opacity="0.93"/><rect x="484" y="218" width="12" height="15" rx="1.5" fill="#0f2419" opacity="0.55"/><rect x="506" y="218" width="12" height="15" rx="1.5" fill="#0f2419" opacity="0.55"/><rect x="528" y="218" width="12" height="15" rx="1.5" fill="#ffd3a1" opacity="0.59"/><rect x="440" y="245" width="12" height="15" rx="1.5" fill="#ffd3a1" opacity="0.94"/><rect x="462" y="245" width="12" height="15" rx="1.5" fill="#ffd3a1" opacity="0.83"/><rect x="484" y="245" width="12" height="15" rx="1.5" fill="#ffd3a1" opacity="0.88"/><rect x="506" y="245" width="12" height="15" rx="1.5" fill="#0f2419" opacity="0.55"/><rect x="528" y="245" width="12" height="15" rx="1.5" fill="#ffd3a1" opacity="0.62"/><rect x="440" y="272" width="12" height="15" rx="1.5" fill="#0f2419" opacity="0.55"/><rect x="462" y="272" width="12" height="15" rx="1.5" fill="#ffd3a1" opacity="0.64"/><rect x="484" y="272" width="12" height="15" rx="1.5" fill="#ffd3a1" opacity="0.89"/><rect x="506" y="272" width="12" height="15" rx="1.5" fill="#0f2419" opacity="0.55"/><rect x="528" y="272" width="12" height="15" rx="1.5" fill="#ffd3a1" opacity="0.92"/><rect x="440" y="299" width="12" height="15" rx="1.5" fill="#ffd3a1" opacity="0.56"/><rect x="462" y="299" width="12" height="15" rx="1.5" fill="#ffd3a1" opacity="0.73"/><rect x="484" y="299" width="12" height="15" rx="1.5" fill="#ffd3a1" opacity="0.62"/><rect x="506" y="299" width="12" height="15" rx="1.5" fill="#ffd3a1" opacity="0.78"/><rect x="528" y="299" width="12" height="15" rx="1.5" fill="#ffd3a1" opacity="0.69"/><rect x="440" y="326" width="12" height="15" rx="1.5" fill="#0f2419" opacity="0.55"/><rect x="462" y="326" width="12" height="15" rx="1.5" fill="#0f2419" opacity="0.55"/><rect x="484" y="326" width="12" height="15" rx="1.5" fill="#0f2419" opacity="0.55"/><rect x="506" y="326" width="12" height="15" rx="1.5" fill="#0f2419" opacity="0.55"/><rect x="528" y="326" width="12" height="15" rx="1.5" fill="#0f2419" opacity="0.55"/><rect x="440" y="353" width="12" height="15" rx="1.5" fill="#ffd3a1" opacity="0.56"/><rect x="462" y="353" width="12" height="15" rx="1.5" fill="#ffd3a1" opacity="0.91"/><rect x="484" y="353" width="12" height="15" rx="1.5" fill="#0f2419" opacity="0.55"/><rect x="506" y="353" width="12" height="15" rx="1.5" fill="#0f2419" opacity="0.55"/><rect x="528" y="353" width="12" height="15" rx="1.5" fill="#ffd3a1" opacity="0.8"/><rect x="440" y="380" width="12" height="15" rx="1.5" fill="#ffd3a1" opacity="0.84"/><rect x="462" y="380" width="12" height="15" rx="1.5" fill="#ffd3a1" opacity="0.95"/><rect x="484" y="380" width="12" height="15" rx="1.5" fill="#ffd3a1" opacity="0.77"/><rect x="506" y="380" width="12" height="15" rx="1.5" fill="#0f2419" opacity="0.55"/><rect x="528" y="380" width="12" height="15" rx="1.5" fill="#0f2419" opacity="0.55"/><rect x="473" y="406" width="34" height="34" rx="3" fill="#ffd3a1" opacity="0.9"/><rect x="590" y="280" width="150" height="160" rx="4" fill="#183325"/><rect x="590" y="280" width="150" height="160" rx="4" fill="url(#sheen)"/><rect x="598" y="272" width="134" height="8" rx="2" fill="#183325" opacity="0.85"/><rect x="615" y="298" width="12" height="15" rx="1.5" fill="#0f2419" opacity="0.55"/><rect x="637" y="298" width="12" height="15" rx="1.5" fill="#0f2419" opacity="0.55"/><rect x="659" y="298" width="12" height="15" rx="1.5" fill="#0f2419" opacity="0.55"/><rect x="681" y="298" width="12" height="15" rx="1.5" fill="#0f2419" opacity="0.55"/><rect x="703" y="298" width="12" height="15" rx="1.5" fill="#ffd3a1" opacity="0.82"/><rect x="615" y="325" width="12" height="15" rx="1.5" fill="#0f2419" opacity="0.55"/><rect x="637" y="325" width="12" height="15" rx="1.5" fill="#0f2419" opacity="0.55"/><rect x="659" y="325" width="12" height="15" rx="1.5" fill="#ffd3a1" opacity="0.87"/><rect x="681" y="325" width="12" height="15" rx="1.5" fill="#0f2419" opacity="0.55"/><rect x="703" y="325" width="12" height="15" rx="1.5" fill="#ffd3a1" opacity="0.8"/><rect x="615" y="352" width="12" height="15" rx="1.5" fill="#ffd3a1" opacity="0.78"/><rect x="637" y="352" width="12" height="15" rx="1.5" fill="#0f2419" opacity="0.55"/><rect x="659" y="352" width="12" height="15" rx="1.5" fill="#ffd3a1" opacity="0.81"/><rect x="681" y="352" width="12" height="15" rx="1.5" fill="#0f2419" opacity="0.55"/><rect x="703" y="352" width="12" height="15" rx="1.5" fill="#0f2419" opacity="0.55"/><rect x="615" y="379" width="12" height="15" rx="1.5" fill="#0f2419" opacity="0.55"/><rect x="637" y="379" width="12" height="15" rx="1.5" fill="#ffd3a1" opacity="0.84"/><rect x="659" y="379" width="12" height="15" rx="1.5" fill="#0f2419" opacity="0.55"/><rect x="681" y="379" width="12" height="15" rx="1.5" fill="#ffd3a1" opacity="0.89"/><rect x="703" y="379" width="12" height="15" rx="1.5" fill="#ffd3a1" opacity="0.85"/><rect x="648" y="406" width="34" height="34" rx="3" fill="#ffd3a1" opacity="0.9"/><rect x="0" y="440" width="800" height="60" fill="url(#gnd)"/><ellipse cx="400.0" cy="444" rx="560" ry="7" fill="#0d1f14" opacity="0.5"/><path d="M336 500 L376 440 L424 440 L496 500 Z" fill="#c9b18f" opacity="0.28"/><path d="M33 466 L33 400.9" stroke="#3d2b20" stroke-width="5.8" stroke-linecap="round"/><circle cx="17" cy="389" r="23" fill="#2f5c40"/><circle cx="50" cy="382" r="26" fill="#3d7050"/><circle cx="33" cy="366" r="22" fill="#2f5c40"/><path d="M699 466 L699 395.8" stroke="#3d2b20" stroke-width="6.5" stroke-linecap="round"/><circle cx="681" cy="383" r="26" fill="#2f5c40"/><circle cx="718" cy="375" r="30" fill="#3d7050"/><circle cx="699" cy="357" r="25" fill="#2f5c40"/><path d="M376 466 L376 411.1" stroke="#3d2b20" stroke-width="4.2" stroke-linecap="round"/><circle cx="364" cy="403" r="17" fill="#2f5c40"/><circle cx="389" cy="398" r="20" fill="#3d7050"/><circle cx="376" cy="386" r="16" fill="#2f5c40"/><path d="M183 458 V394" stroke="#122619" stroke-width="3"/><circle cx="183" cy="388" r="6" fill="#ffd3a1" opacity="0.95"/><circle cx="183" cy="388" r="14" fill="#ffd3a1" opacity="0.18"/><path d="M557 458 V394" stroke="#122619" stroke-width="3"/><circle cx="557" cy="388" r="6" fill="#ffd3a1" opacity="0.95"/><circle cx="557" cy="388" r="14" fill="#ffd3a1" opacity="0.18"/><rect width="800" height="500" fill="#1a2f22" opacity="0.06"/></svg>